<svg width="256" height="62" viewBox="0 0 256 62" fill="none" xmlns="http://www.w3.org/2000/svg">
<g filter="url(#filter0_d_1_1139)">
<rect x="4" y="4" width="240" height="46" rx="23" fill="#4545FE"/>
<g clip-path="url(#clip0_1_1139)">
<path d="M32.4956 19.7143C31.5801 18.8965 30.459 18.3437 29.2528 18.1156C28.0466 17.8875 26.8011 17.9926 25.6502 18.4197C24.4993 18.8467 23.4867 19.5796 22.7213 20.5393C21.9559 21.499 21.4667 22.6493 21.3063 23.8663C21.1623 24.9334 21.2775 26.0196 21.6421 27.0328C22.0067 28.0459 22.6101 28.9564 23.4011 29.687C23.8902 30.116 24.2849 30.6419 24.5602 31.2314C24.8354 31.8209 24.9852 32.4611 25.0001 33.1115V33.2323C25.0009 33.966 25.2927 34.6695 25.8115 35.1883C26.3304 35.7072 27.0338 35.999 27.7676 35.9998H28.2326C28.9663 35.999 29.6698 35.7072 30.1886 35.1883C30.7074 34.6695 30.9993 33.966 31.0001 33.2323V32.8205C31.0113 32.2456 31.1466 31.6799 31.3967 31.1622C31.6468 30.6444 32.0057 30.1867 32.4491 29.8205C33.168 29.1909 33.7449 28.4156 34.1417 27.5462C34.5384 26.6767 34.7458 25.7328 34.7502 24.7771C34.7546 23.8215 34.5558 22.8757 34.1672 22.0027C33.7785 21.1296 33.2087 20.3491 32.4956 19.7128V19.7143ZM28.2326 34.4998H27.7676C27.4315 34.4994 27.1094 34.3657 26.8717 34.1281C26.6341 33.8905 26.5005 33.5683 26.5001 33.2323C26.5001 33.2323 26.4948 33.0373 26.4941 32.9998H29.5001V33.2323C29.4997 33.5683 29.366 33.8905 29.1284 34.1281C28.8908 34.3657 28.5686 34.4994 28.2326 34.4998ZM31.4576 28.694C30.6036 29.4347 29.9869 30.4106 29.6846 31.4998H28.7501V26.1118C29.1872 25.9572 29.566 25.6714 29.8345 25.2933C30.103 24.9153 30.2481 24.4635 30.2501 23.9998C30.2501 23.8009 30.1711 23.6101 30.0304 23.4695C29.8897 23.3288 29.699 23.2498 29.5001 23.2498C29.3012 23.2498 29.1104 23.3288 28.9697 23.4695C28.8291 23.6101 28.7501 23.8009 28.7501 23.9998C28.7501 24.1987 28.6711 24.3895 28.5304 24.5301C28.3897 24.6708 28.199 24.7498 28.0001 24.7498C27.8012 24.7498 27.6104 24.6708 27.4697 24.5301C27.3291 24.3895 27.2501 24.1987 27.2501 23.9998C27.2501 23.8009 27.1711 23.6101 27.0304 23.4695C26.8897 23.3288 26.699 23.2498 26.5001 23.2498C26.3012 23.2498 26.1104 23.3288 25.9697 23.4695C25.8291 23.6101 25.7501 23.8009 25.7501 23.9998C25.752 24.4635 25.8971 24.9153 26.1656 25.2933C26.4341 25.6714 26.8129 25.9572 27.2501 26.1118V31.4998H26.2586C25.9203 30.3817 25.2859 29.3759 24.4226 28.589C23.6898 27.9062 23.1676 27.0281 22.9177 26.0582C22.6677 25.0882 22.7005 24.0671 23.012 23.1152C23.3235 22.1632 23.9008 21.3203 24.6758 20.6858C25.4508 20.0513 26.3911 19.6518 27.3858 19.5343C27.592 19.5113 27.7993 19.4998 28.0068 19.4998C29.295 19.496 30.5386 19.9713 31.4958 20.8333C32.0506 21.328 32.4939 21.935 32.7963 22.614C33.0987 23.293 33.2533 24.0285 33.2499 24.7718C33.2465 25.5151 33.0851 26.2492 32.7765 26.9254C32.4679 27.6016 32.0191 28.2044 31.4598 28.694H31.4576Z" fill="white"/>
</g>
<path d="M51.22 34.5L45.16 20.3H47.22L52 31.6L56.8 20.3H58.82L52.78 34.5H51.22ZM63.813 34.7C62.2796 34.7 61.033 34.2067 60.073 33.22C59.113 32.2333 58.633 30.9933 58.633 29.5C58.633 28.02 59.1196 26.7867 60.093 25.8C61.0663 24.8 62.313 24.3 63.833 24.3C65.1796 24.3 66.3063 24.7533 67.213 25.66C68.133 26.5533 68.593 27.7733 68.593 29.32C68.593 29.52 68.5863 29.6933 68.573 29.84H60.373C60.3996 30.7733 60.733 31.5533 61.373 32.18C62.0263 32.8067 62.8463 33.12 63.833 33.12C65.233 33.12 66.273 32.54 66.953 31.38L68.313 32.32C67.3396 33.9067 65.8396 34.7 63.813 34.7ZM60.493 28.44H66.833C66.6996 27.64 66.3463 27.0067 65.773 26.54C65.213 26.06 64.5463 25.82 63.773 25.82C62.9863 25.82 62.2796 26.06 61.653 26.54C61.0396 27.0067 60.653 27.64 60.493 28.44ZM75.4341 34.7C73.9007 34.7 72.6541 34.2067 71.6941 33.22C70.7341 32.2333 70.2541 30.9933 70.2541 29.5C70.2541 28.02 70.7407 26.7867 71.7141 25.8C72.6874 24.8 73.9341 24.3 75.4541 24.3C76.8007 24.3 77.9274 24.7533 78.8341 25.66C79.7541 26.5533 80.2141 27.7733 80.2141 29.32C80.2141 29.52 80.2074 29.6933 80.1941 29.84H71.9941C72.0207 30.7733 72.3541 31.5533 72.9941 32.18C73.6474 32.8067 74.4674 33.12 75.4541 33.12C76.8541 33.12 77.8941 32.54 78.5741 31.38L79.9341 32.32C78.9607 33.9067 77.4607 34.7 75.4341 34.7ZM72.1141 28.44H78.4541C78.3207 27.64 77.9674 27.0067 77.3941 26.54C76.8341 26.06 76.1674 25.82 75.3941 25.82C74.6074 25.82 73.9007 26.06 73.2741 26.54C72.6607 27.0067 72.2741 27.64 72.1141 28.44ZM82.6552 34.5V24.5H84.3752V26.44C84.5618 25.8267 84.9218 25.3333 85.4552 24.96C86.0018 24.5867 86.5752 24.4 87.1752 24.4C87.4685 24.4 87.7285 24.4267 87.9552 24.48V26.26C87.7152 26.1533 87.4018 26.1 87.0152 26.1C86.3218 26.1 85.7085 26.4 85.1752 27C84.6418 27.6 84.3752 28.4467 84.3752 29.54V34.5H82.6552ZM91.6064 31.9C92.2331 32.5533 93.0464 32.88 94.0464 32.88C95.0464 32.88 95.8597 32.5533 96.4864 31.9C97.1131 31.2333 97.4264 30.3933 97.4264 29.38C97.4264 28.3667 97.1064 27.5333 96.4664 26.88C95.8397 26.2133 95.0331 25.88 94.0464 25.88C93.0597 25.88 92.2464 26.2133 91.6064 26.88C90.9797 27.5333 90.6664 28.3667 90.6664 29.38C90.6664 30.3933 90.9797 31.2333 91.6064 31.9ZM93.9464 38.88C92.9197 38.88 91.9931 38.6867 91.1664 38.3C90.3397 37.9267 89.6997 37.44 89.2464 36.84L90.4464 35.64C91.3264 36.76 92.4931 37.32 93.9464 37.32C94.8797 37.32 95.6664 37.0267 96.3064 36.44C96.9597 35.8533 97.2864 34.9933 97.2864 33.86V32.72C96.9264 33.2533 96.4397 33.68 95.8264 34C95.2131 34.32 94.5397 34.48 93.8064 34.48C92.4064 34.48 91.2397 33.9933 90.3064 33.02C89.3731 32.0333 88.9064 30.82 88.9064 29.38C88.9064 27.9533 89.3731 26.7533 90.3064 25.78C91.2531 24.7933 92.4197 24.3 93.8064 24.3C94.5397 24.3 95.2131 24.46 95.8264 24.78C96.4397 25.1 96.9264 25.52 97.2864 26.04V24.5H99.0064V33.92C99.0064 35.5333 98.5331 36.76 97.5864 37.6C96.6531 38.4533 95.4397 38.88 93.9464 38.88ZM106.645 34.7C105.112 34.7 103.865 34.2067 102.905 33.22C101.945 32.2333 101.465 30.9933 101.465 29.5C101.465 28.02 101.952 26.7867 102.925 25.8C103.898 24.8 105.145 24.3 106.665 24.3C108.012 24.3 109.138 24.7533 110.045 25.66C110.965 26.5533 111.425 27.7733 111.425 29.32C111.425 29.52 111.418 29.6933 111.405 29.84H103.205C103.232 30.7733 103.565 31.5533 104.205 32.18C104.858 32.8067 105.678 33.12 106.665 33.12C108.065 33.12 109.105 32.54 109.785 31.38L111.145 32.32C110.172 33.9067 108.672 34.7 106.645 34.7ZM103.325 28.44H109.665C109.532 27.64 109.178 27.0067 108.605 26.54C108.045 26.06 107.378 25.82 106.605 25.82C105.818 25.82 105.112 26.06 104.485 26.54C103.872 27.0067 103.485 27.64 103.325 28.44ZM116.526 34.5L122.806 20.3H124.346L130.646 34.5H128.706L126.866 30.36H120.246L118.446 34.5H116.526ZM123.546 22.82L120.986 28.68H126.126L123.546 22.82ZM135.402 34.7C134.482 34.7 133.675 34.5067 132.982 34.12C132.288 33.72 131.788 33.14 131.482 32.38L132.882 31.6C133.068 32.0933 133.395 32.48 133.862 32.76C134.328 33.04 134.848 33.18 135.422 33.18C135.915 33.18 136.328 33.06 136.662 32.82C136.995 32.58 137.162 32.2533 137.162 31.84C137.162 31.48 137.028 31.18 136.762 30.94C136.508 30.7 136.062 30.48 135.422 30.28L134.422 29.96C132.755 29.48 131.922 28.5067 131.922 27.04C131.922 26.2133 132.248 25.5533 132.902 25.06C133.568 24.5533 134.388 24.3 135.362 24.3C136.882 24.3 137.982 24.88 138.662 26.04L137.382 26.92C136.835 26.16 136.142 25.78 135.302 25.78C134.848 25.78 134.455 25.8933 134.122 26.12C133.802 26.3333 133.642 26.62 133.642 26.98C133.642 27.3133 133.742 27.6 133.942 27.84C134.155 28.0667 134.528 28.26 135.062 28.42L136.162 28.76C137.975 29.32 138.882 30.3 138.882 31.7C138.882 32.6333 138.555 33.3667 137.902 33.9C137.262 34.4333 136.428 34.7 135.402 34.7ZM144.406 34.7C143.486 34.7 142.679 34.5067 141.986 34.12C141.292 33.72 140.792 33.14 140.486 32.38L141.886 31.6C142.072 32.0933 142.399 32.48 142.866 32.76C143.332 33.04 143.852 33.18 144.426 33.18C144.919 33.18 145.332 33.06 145.666 32.82C145.999 32.58 146.166 32.2533 146.166 31.84C146.166 31.48 146.032 31.18 145.766 30.94C145.512 30.7 145.066 30.48 144.426 30.28L143.426 29.96C141.759 29.48 140.926 28.5067 140.926 27.04C140.926 26.2133 141.252 25.5533 141.906 25.06C142.572 24.5533 143.392 24.3 144.366 24.3C145.886 24.3 146.986 24.88 147.666 26.04L146.386 26.92C145.839 26.16 145.146 25.78 144.306 25.78C143.852 25.78 143.459 25.8933 143.126 26.12C142.806 26.3333 142.646 26.62 142.646 26.98C142.646 27.3133 142.746 27.6 142.946 27.84C143.159 28.0667 143.532 28.26 144.066 28.42L145.166 28.76C146.979 29.32 147.886 30.3 147.886 31.7C147.886 32.6333 147.559 33.3667 146.906 33.9C146.266 34.4333 145.432 34.7 144.406 34.7ZM152.13 21.48C151.903 21.7067 151.616 21.82 151.27 21.82C150.923 21.82 150.63 21.7067 150.39 21.48C150.15 21.24 150.03 20.9467 150.03 20.6C150.03 20.2667 150.15 19.98 150.39 19.74C150.63 19.5 150.923 19.38 151.27 19.38C151.616 19.38 151.903 19.5 152.13 19.74C152.356 19.98 152.47 20.2667 152.47 20.6C152.47 20.9467 152.356 21.24 152.13 21.48ZM150.39 34.5V24.5H152.11V34.5H150.39ZM158.39 34.7C157.47 34.7 156.663 34.5067 155.97 34.12C155.277 33.72 154.777 33.14 154.47 32.38L155.87 31.6C156.057 32.0933 156.383 32.48 156.85 32.76C157.317 33.04 157.837 33.18 158.41 33.18C158.903 33.18 159.317 33.06 159.65 32.82C159.983 32.58 160.15 32.2533 160.15 31.84C160.15 31.48 160.017 31.18 159.75 30.94C159.497 30.7 159.05 30.48 158.41 30.28L157.41 29.96C155.743 29.48 154.91 28.5067 154.91 27.04C154.91 26.2133 155.237 25.5533 155.89 25.06C156.557 24.5533 157.377 24.3 158.35 24.3C159.87 24.3 160.97 24.88 161.65 26.04L160.37 26.92C159.823 26.16 159.13 25.78 158.29 25.78C157.837 25.78 157.443 25.8933 157.11 26.12C156.79 26.3333 156.63 26.62 156.63 26.98C156.63 27.3133 156.73 27.6 156.93 27.84C157.143 28.0667 157.517 28.26 158.05 28.42L159.15 28.76C160.963 29.32 161.87 30.3 161.87 31.7C161.87 32.6333 161.543 33.3667 160.89 33.9C160.25 34.4333 159.417 34.7 158.39 34.7ZM168.156 34.6C167.236 34.6 166.496 34.34 165.936 33.82C165.376 33.3 165.096 32.54 165.096 31.54V26.08H162.976V24.5H165.096V21.72H166.816V24.5H169.696V26.08H166.816V31.32C166.816 31.9467 166.95 32.3867 167.216 32.64C167.483 32.8933 167.903 33.02 168.476 33.02C168.983 33.02 169.39 32.9533 169.696 32.82V34.36C169.216 34.52 168.703 34.6 168.156 34.6ZM175.877 34.7C174.49 34.7 173.323 34.1933 172.377 33.18C171.443 32.1667 170.977 30.94 170.977 29.5C170.977 28.06 171.443 26.8333 172.377 25.82C173.323 24.8067 174.49 24.3 175.877 24.3C176.61 24.3 177.29 24.4667 177.917 24.8C178.557 25.12 179.05 25.5333 179.397 26.04V24.5H181.117V34.5H179.397V32.96C179.05 33.4667 178.557 33.8867 177.917 34.22C177.29 34.54 176.61 34.7 175.877 34.7ZM176.137 33.12C177.123 33.12 177.937 32.7733 178.577 32.08C179.217 31.3867 179.537 30.5267 179.537 29.5C179.537 28.4733 179.217 27.6133 178.577 26.92C177.937 26.2267 177.123 25.88 176.137 25.88C175.137 25.88 174.317 26.2267 173.677 26.92C173.037 27.6133 172.717 28.4733 172.717 29.5C172.717 30.5267 173.037 31.3867 173.677 32.08C174.317 32.7733 175.137 33.12 176.137 33.12ZM184.354 34.5V24.5H186.074V26.04C186.754 24.88 187.814 24.3 189.254 24.3C190.388 24.3 191.301 24.6667 191.994 25.4C192.688 26.1333 193.034 27.1133 193.034 28.34V34.5H191.334V28.6C191.334 27.76 191.121 27.1 190.694 26.62C190.268 26.1267 189.694 25.88 188.974 25.88C188.148 25.88 187.454 26.2067 186.894 26.86C186.348 27.5133 186.074 28.4067 186.074 29.54V34.5H184.354ZM199.895 34.6C198.975 34.6 198.235 34.34 197.675 33.82C197.115 33.3 196.835 32.54 196.835 31.54V26.08H194.715V24.5H196.835V21.72H198.555V24.5H201.435V26.08H198.555V31.32C198.555 31.9467 198.688 32.3867 198.955 32.64C199.221 32.8933 199.641 33.02 200.215 33.02C200.721 33.02 201.128 32.9533 201.435 32.82V34.36C200.955 34.52 200.441 34.6 199.895 34.6Z" fill="white"/>
<g clip-path="url(#clip1_1_1139)">
<path d="M223 23.9999C222.859 23.8593 222.668 23.7803 222.469 23.7803C222.27 23.7803 222.08 23.8593 221.939 23.9999L220 25.9394L218.06 23.9999C217.919 23.8632 217.729 23.7876 217.533 23.7894C217.336 23.7911 217.148 23.8699 217.009 24.009C216.87 24.1481 216.791 24.3362 216.789 24.5328C216.787 24.7295 216.863 24.9189 217 25.0604L218.939 26.9999L217 28.9394C216.863 29.0808 216.787 29.2703 216.789 29.4669C216.791 29.6636 216.87 29.8517 217.009 29.9907C217.148 30.1298 217.336 30.2087 217.533 30.2104C217.729 30.2121 217.919 30.1365 218.06 29.9999L220 28.0604L221.939 29.9999C222.081 30.1365 222.27 30.2121 222.467 30.2104C222.663 30.2087 222.851 30.1298 222.99 29.9907C223.13 29.8517 223.208 29.6636 223.21 29.4669C223.212 29.2703 223.136 29.0808 223 28.9394L221.06 26.9999L223 25.0604C223.14 24.9197 223.219 24.729 223.219 24.5301C223.219 24.3312 223.14 24.1405 223 23.9999Z" fill="white"/>
<path d="M220 18C218.22 18 216.48 18.5278 215 19.5168C213.52 20.5057 212.366 21.9113 211.685 23.5558C211.004 25.2004 210.826 27.01 211.173 28.7558C211.52 30.5016 212.377 32.1053 213.636 33.364C214.895 34.6226 216.498 35.4798 218.244 35.8271C219.99 36.1743 221.8 35.9961 223.444 35.3149C225.089 34.6337 226.494 33.4802 227.483 32.0001C228.472 30.5201 229 28.78 229 27C228.997 24.6138 228.048 22.3262 226.361 20.6389C224.674 18.9516 222.386 18.0026 220 18V18ZM220 34.5C218.517 34.5 217.067 34.0601 215.833 33.236C214.6 32.4119 213.639 31.2406 213.071 29.8701C212.503 28.4997 212.355 26.9917 212.644 25.5368C212.934 24.082 213.648 22.7456 214.697 21.6967C215.746 20.6478 217.082 19.9335 218.537 19.6441C219.992 19.3547 221.5 19.5032 222.87 20.0709C224.241 20.6386 225.412 21.5999 226.236 22.8332C227.06 24.0666 227.5 25.5166 227.5 27C227.498 28.9885 226.707 30.8948 225.301 32.3009C223.895 33.7069 221.988 34.4978 220 34.5Z" fill="white"/>
</g>
</g>
<defs>
<filter id="filter0_d_1_1139" x="0" y="0" width="256" height="62" filterUnits="userSpaceOnUse" color-interpolation-filters="sRGB">
<feFlood flood-opacity="0" result="BackgroundImageFix"/>
<feColorMatrix in="SourceAlpha" type="matrix" values="0 0 0 0 0 0 0 0 0 0 0 0 0 0 0 0 0 0 127 0" result="hardAlpha"/>
<feOffset dx="4" dy="4"/>
<feGaussianBlur stdDeviation="4"/>
<feComposite in2="hardAlpha" operator="out"/>
<feColorMatrix type="matrix" values="0 0 0 0 0.480486 0 0 0 0 0.616667 0 0 0 0 0.616667 0 0 0 0.15 0"/>
<feBlend mode="normal" in2="BackgroundImageFix" result="effect1_dropShadow_1_1139"/>
<feBlend mode="normal" in="SourceGraphic" in2="effect1_dropShadow_1_1139" result="shape"/>
</filter>
<clipPath id="clip0_1_1139">
<rect width="18" height="18" fill="white" transform="translate(19 18)"/>
</clipPath>
<clipPath id="clip1_1_1139">
<rect width="18" height="18" fill="white" transform="translate(211 18)"/>
</clipPath>
</defs>
</svg>
